<svg width="24" height="24" viewBox="0 0 24 24" fill="none" xmlns="http://www.w3.org/2000/svg">
<path d="M21.89 10.53C21.8538 10.2916 21.7327 10.0742 21.5489 9.91801C21.3652 9.76181 21.1312 9.67728 20.89 9.68001C20.3724 9.7239 19.8531 9.61811 19.3939 9.37522C18.9347 9.13233 18.555 8.76258 18.3 8.31001C18.0443 7.86009 17.9182 7.3481 17.9359 6.83088C17.9535 6.31366 18.1142 5.81145 18.4 5.38001C18.5508 5.1668 18.6121 4.90308 18.571 4.6452C18.5299 4.38733 18.3896 4.15577 18.18 4.00001C17.4262 3.40687 16.591 2.92527 15.7 2.57001C15.475 2.47732 15.2239 2.46986 14.9938 2.54902C14.7637 2.62817 14.5704 2.78852 14.45 3.00001C14.2365 3.47084 13.892 3.8702 13.4574 4.15029C13.0229 4.43038 12.5169 4.57933 12 4.57933C11.483 4.57933 10.977 4.43038 10.5425 4.15029C10.108 3.8702 9.76343 3.47084 9.54999 3.00001C9.42963 2.78852 9.23628 2.62817 9.00617 2.54902C8.77606 2.46986 8.52499 2.47732 8.29999 2.57001C7.40902 2.92527 6.5738 3.40687 5.81999 4.00001C5.6104 4.15577 5.47005 4.38733 5.42894 4.6452C5.38783 4.90308 5.44922 5.1668 5.59999 5.38001C5.8858 5.81145 6.04646 6.31366 6.06411 6.83088C6.08176 7.3481 5.95572 7.86009 5.69999 8.31001C5.44644 8.75931 5.06992 9.1269 4.61466 9.36958C4.15941 9.61227 3.64434 9.71996 3.12999 9.68001C2.88882 9.67728 2.6548 9.76181 2.47104 9.91801C2.28727 10.0742 2.16615 10.2916 2.12999 10.53C1.98336 11.5045 1.98336 12.4955 2.12999 13.47C2.16615 13.7085 2.28727 13.9258 2.47104 14.082C2.6548 14.2382 2.88882 14.3227 3.12999 14.32C3.64434 14.2801 4.15941 14.3878 4.61466 14.6304C5.06992 14.8731 5.44644 15.2407 5.69999 15.69C5.95572 16.1399 6.08176 16.6519 6.06411 17.1691C6.04646 17.6864 5.8858 18.1886 5.59999 18.62C5.44922 18.8332 5.38783 19.0969 5.42894 19.3548C5.47005 19.6127 5.6104 19.8443 5.81999 20C6.5738 20.5931 7.40902 21.0747 8.29999 21.43C8.52499 21.5227 8.77606 21.5302 9.00617 21.451C9.23628 21.3718 9.42963 21.2115 9.54999 21C9.76343 20.5292 10.108 20.1298 10.5425 19.8497C10.977 19.5696 11.483 19.4207 12 19.4207C12.5169 19.4207 13.0229 19.5696 13.4574 19.8497C13.892 20.1298 14.2365 20.5292 14.45 21C14.5638 21.2186 14.7543 21.3875 14.985 21.4742C15.2157 21.561 15.4703 21.5595 15.7 21.47C16.5933 21.1024 17.4287 20.6072 18.18 20C18.384 19.8447 18.5206 19.617 18.5615 19.3639C18.6025 19.1108 18.5447 18.8517 18.4 18.64C18.1142 18.2086 17.9535 17.7064 17.9359 17.1891C17.9182 16.6719 18.0443 16.1599 18.3 15.71C18.5535 15.2607 18.9301 14.8931 19.3853 14.6504C19.8406 14.4078 20.3556 14.3001 20.87 14.34C21.1112 14.3427 21.3452 14.2582 21.5289 14.102C21.7127 13.9458 21.8338 13.7285 21.87 13.49C22.0166 12.5155 22.0166 11.5245 21.87 10.55L21.89 10.53ZM7.49999 12C7.49999 12.1326 7.44731 12.2598 7.35354 12.3536C7.25977 12.4473 7.1326 12.5 6.99999 12.5C6.86738 12.5 6.7402 12.4473 6.64644 12.3536C6.55267 12.2598 6.49999 12.1326 6.49999 12C6.49801 10.9178 6.8159 9.85923 7.41371 8.95718C8.01152 8.05512 8.86259 7.34986 9.85999 6.93001C9.98346 6.87985 10.1217 6.88003 10.245 6.93049C10.3684 6.98095 10.4671 7.07769 10.52 7.20001C10.5671 7.32229 10.5654 7.45803 10.5151 7.57905C10.4648 7.70008 10.3699 7.7971 10.25 7.85001C9.43489 8.19549 8.7395 8.77321 8.25049 9.51118C7.76147 10.2492 7.50046 11.1147 7.49999 12ZM12 14C11.6044 14 11.2177 13.8827 10.8888 13.6629C10.5599 13.4432 10.3036 13.1308 10.1522 12.7654C10.0009 12.3999 9.96125 11.9978 10.0384 11.6098C10.1156 11.2219 10.3061 10.8655 10.5858 10.5858C10.8655 10.3061 11.2218 10.1156 11.6098 10.0384C11.9978 9.96127 12.3999 10.0009 12.7654 10.1522C13.1308 10.3036 13.4432 10.56 13.6629 10.8889C13.8827 11.2178 14 11.6044 14 12C14 12.5304 13.7893 13.0391 13.4142 13.4142C13.0391 13.7893 12.5304 14 12 14Z" fill="#484C4F"/>
</svg>
