<?xml version="1.0"?>
<svg xmlns="http://www.w3.org/2000/svg" id="Filled" viewBox="0 0 512 512" width="512" height="512"><circle cx="256" cy="256" r="232" style="fill:#ffd754"/><circle cx="256" cy="256" r="184" style="fill:#edb90c"/><path d="M74.782,232a8,8,0,0,1-7.889-9.383A192.259,192.259,0,0,1,222.618,66.893a8,8,0,1,1,2.764,15.76A176.214,176.214,0,0,0,82.652,225.382,8,8,0,0,1,74.782,232Z"/><path d="M287.99,445.229a8,8,0,0,1-1.372-15.882,176.214,176.214,0,0,0,142.73-142.729,8,8,0,1,1,15.759,2.764A192.259,192.259,0,0,1,289.382,445.107,8.051,8.051,0,0,1,287.99,445.229Z"/><circle cx="72" cy="256" r="8"/><circle cx="256" cy="72" r="8"/><circle cx="440" cy="256" r="8"/><circle cx="256" cy="440" r="8"/><path d="M256,496A240,240,0,0,1,86.3,86.294a240,240,0,1,1,339.41,339.412A238.426,238.426,0,0,1,256,496Zm0-464A224,224,0,0,0,97.608,414.392,224,224,0,0,0,414.392,97.608,222.535,222.535,0,0,0,256,32Z"/><path d="M178.531,232H168a8,8,0,0,0,0,16h8.28c-.182,2.639-.28,5.306-.28,8s.1,5.361.28,8H168a8,8,0,0,0,0,16h10.531c8.9,41.359,40.26,72,77.469,72,24.258,0,46.918-12.947,62.172-35.521a8,8,0,0,0-13.258-8.958C292.685,325.62,274.856,336,256,336c-28.6,0-52.879-23.578-61.054-56H264a8,8,0,0,0,0-16H192.321q-.315-3.948-.321-8t.321-8H264a8,8,0,0,0,0-16H194.946c8.175-32.422,32.451-56,61.054-56,19.105,0,37.086,10.606,49.329,29.1a8,8,0,0,0,13.342-8.832C303.411,173.219,280.568,160,256,160,218.791,160,187.435,190.641,178.531,232Z"/></svg>
